<svg width="938" height="454" viewBox="0 0 938 454" fill="none" xmlns="http://www.w3.org/2000/svg">
<g clip-path="url(#clip0_1766_3597)">
<rect width="938" height="454" fill="white"/>
<rect width="938" height="454" fill="#13538A"/>
<g clip-path="url(#clip1_1766_3597)">
<rect width="938" height="741" transform="translate(0 -143)" fill="url(#paint0_linear_1766_3597)"/>
<g opacity="0.5" filter="url(#filter0_f_1766_3597)">
<circle cx="735.245" cy="-0.288956" r="254.547" fill="white"/>
</g>
<g opacity="0.5" filter="url(#filter1_f_1766_3597)">
<circle cx="-230.8" cy="67.6362" r="178.389" fill="white"/>
</g>
<g opacity="0.75" filter="url(#filter2_f_1766_3597)">
<circle cx="195.394" cy="499.2" r="237.394" fill="#34489B"/>
</g>
<g opacity="0.75" filter="url(#filter3_f_1766_3597)">
<circle cx="-81.9138" cy="296.111" r="148.886" fill="#3083E2"/>
</g>
<path d="M372.226 163.931L369.77 163.684H367.559L364.491 162.944L359.207 160.122H356.015L348.521 162.209L346.435 162.944L343.731 163.684L341.274 163.56L337.465 163.684L328.866 163.067L326.656 162.579L324.199 161.838L319.656 160.857L317.692 159.505L315.235 158.77L309.216 154.838L303.686 149.924L302.093 147.714L300.617 146.239L299.512 143.905L298.037 141.819L297.302 139.485L295.334 135.306L293.494 127.941L293 123.151L293.247 113.564L293.864 111.113L293.982 108.656L295.457 103.742L296.439 101.774L297.055 99.1933L298.037 97.23L303.933 89.2478L308.97 84.2106L319.532 78.3152L324.199 76.84L326.533 76.5932L328.866 75.8583L331.446 75.3648L337.465 75.2414L341.027 75L345.818 75.4882L355.28 78.1918L365.473 84.0872L369.281 87.4024L370.88 89.001L375.3 95.0198L378.492 101.409L380.702 108.533L381.196 111.113V113.2L381.689 115.903L381.931 119.342L381.689 123.515L380.702 131.133L379.844 133.22L379.232 135.8L377.14 140.467V143.541L377.88 146.732L379.474 148.454L380.949 150.788L387.585 158.4L389.178 160.733L388.566 163.314L386.233 163.931H384.023L381.566 163.684L372.226 163.931ZM337.224 142.189L343.361 141.695L348.151 139.732L352.207 136.535L353.929 134.941L355.522 132.849L356.75 130.639L357.732 128.059L358.596 123.515L358.842 119.465L358.472 113.076L356.75 108.533L355.645 106.441L354.052 104.107L350.243 100.669L348.033 99.0753L344.713 97.8469L341.397 96.8598L333.539 96.495L329.73 97.8469L326.533 99.3167L322.236 102.144L320.637 103.866L319.285 105.952L316.952 110.743L315.847 115.78L315.723 119.583L316.34 125.972L316.952 128.306L319.044 132.485L320.514 134.818L324.323 138.627L326.291 139.855L328.625 141.084L337.224 142.189Z" fill="#13538A"/>
<path d="M395.684 158.976L395.442 156.643L395.684 129.741L395.319 126.055L395.807 102.597L395.442 97.4363L395.684 90.1891L395.56 87.9789L395.684 85.3987L395.442 83.1886V80.4849L396.671 77.9047L399.369 76.6816L414.234 76.923L416.444 76.4348L421.234 77.0464L423.444 76.5582L436.099 76.923L440.889 78.028L442.976 78.7683L445.31 79.8734L447.396 81.1018L449.118 82.4536L450.958 83.6821L452.804 85.3987L456.859 91.0527L457.717 93.6276L458.699 98.0532L458.946 101.862L458.823 106.035L457.347 110.456L455.014 115.246L454.156 117.585L455.384 120.407L457.347 122.129L458.946 123.969L461.156 129.006L462.508 133.426L462.261 143.377L461.279 145.71L460.539 148.044L459.316 150.501L455.996 155.044L451.082 158.976L448.872 160.081L441.994 162.05L439.784 162.415L427.13 163.032L424.673 162.662L406.863 162.908L403.178 162.538L399.122 162.908L396.789 161.433L395.684 158.976ZM420.864 110.338L430.327 109.968L433.889 108.739L435.729 107.264L436.587 103.702L436.222 100.017L435.241 98.0532L433.272 97.0716L420.623 96.2079L418.289 97.6831L416.814 101.245L416.938 105.424L418.289 108.862L420.864 110.338ZM420.499 143.13L429.957 143.377L436.711 142.765L438.803 141.413L440.149 139.691L440.766 136.13L440.031 133.061L438.803 130.851L436.711 129.987L425.166 128.882L422.586 129.129L420.253 128.759L418.166 130.357L417.061 132.444L416.691 139.815L418.289 142.272L420.499 143.13Z" fill="#13538A"/>
<path d="M516.803 164.711L509.432 164.341L498.993 161.273L496.66 160.286L488.307 155.865L486.709 154.025L483.27 150.705L477.498 142.846L476.27 140.636L475.529 138.056L473.689 133.877L472.338 126.141L472.831 111.894L473.813 106.61L476.146 99.856L477.251 97.7639L481.425 91.6217L484.745 87.9363L488.672 85.2381L490.394 83.7629L496.66 79.8308L501.327 78.6023L503.537 77.6206L505.994 76.8857L508.451 76.3922L517.05 75.8987L522.822 76.0221L538.915 81.0592L545.18 84.9913L550.459 89.7817L552.058 91.9918L553.533 93.467L555.126 95.5537L555.99 97.7639L558.2 101.819L558.811 104.646L559.793 107.221L560.78 111.77L561.392 120.246L560.78 128.84L560.287 131.543L559.552 133.512L559.181 135.969L558.323 138.302L553.533 146.778L551.934 148.988L543.335 157.217L532.403 162.131L527.736 163.606L516.803 164.711ZM513.364 143.093L520.488 142.846L522.822 142.229L525.032 141.988L527.001 140.877L529.211 139.896L533.019 136.951L534.489 134.74L535.594 132.895L536.946 131.055L538.051 126.018L538.791 119.876L538.298 114.592L537.44 112.382L536.705 109.925L535.718 107.715L532.896 103.536L529.087 100.714L522.575 97.8872L516.68 97.5171L511.031 98.0106L508.451 98.6275L506.24 99.7326L502.679 102.189L500.833 103.783L499.24 105.751L498.135 107.838L496.66 109.555L495.919 111.77L495.061 116.314L494.938 119.999L495.555 126.141L497.888 133.019L499.481 134.74L500.71 136.457L504.519 139.772L508.697 141.988L510.907 142.229L513.364 143.093Z" fill="#13538A"/>
<path d="M567.659 159.715L568.764 156.888L569.992 154.555L571.344 152.833L572.573 150.499L575.271 146.814L579.203 140.307L580.678 138.461L583.135 134.041L584.728 132.443L585.957 130.232L587.185 128.757L589.642 124.337L592.469 120.282L592.963 117.583L592.222 114.263L591.117 112.423L589.401 110.213L586.944 106.034L585.469 104.194L584.117 101.86L582.642 100.015L580.061 95.5947L576.623 90.8043L574.659 87.2424L571.586 83.1869L570.357 80.4833L570.604 77.785L573.431 77.0447L577.116 77.1681L580.925 76.6799L583.747 77.0447H586.204L588.907 76.6799L591.858 78.0264L594.433 80.1185L600.698 90.1874L601.562 92.3975L602.908 93.9961L604.137 96.453L605.365 98.4164L607.087 98.0516L612.612 90.3108L613.476 87.8539L617.526 82.2052L618.508 79.8717L621.335 78.0264L624.285 76.9213L626.619 76.6799L635.459 77.0447L639.391 76.7979L642.095 77.6616L642.707 80.2419L635.583 91.2925L634.478 93.508L625.755 105.91L624.527 108.244L622.07 112.053L620.353 114.263L619.736 117.213L620.477 120.282L621.952 122.127L627.6 131.584L631.286 136.375L633.619 140.672L635.218 142.887L636.076 144.48L640.373 150.376L641.478 152.468L644.182 156.395L645.657 159.468L645.287 162.29L642.83 162.907L640.373 162.537L626.249 163.277L623.298 161.925L620.965 159.592L608.686 138.955L607.21 137.11L605.735 136.986L604.383 138.832L602.05 143.499L600.451 145.097L599.346 147.431L595.784 153.449L594.679 155.906L593.327 157.746L592.346 159.715L589.642 161.678L586.82 162.537L583.135 162.907L570.239 163.03L568.024 162.172L567.659 159.715Z" fill="#13538A"/>
<path d="M300.058 249.711V209.811H307.696L331.237 238.539H327.532V209.811H336.652V249.711H329.071L305.473 220.983H309.178V249.711H300.058ZM360.057 250.167C356.789 250.167 353.882 249.483 351.336 248.115C348.828 246.747 346.833 244.885 345.351 242.529C343.907 240.135 343.185 237.418 343.185 234.378C343.185 231.3 343.907 228.583 345.351 226.227C346.833 223.833 348.828 221.971 351.336 220.641C353.882 219.273 356.789 218.589 360.057 218.589C363.287 218.589 366.175 219.273 368.721 220.641C371.267 221.971 373.262 223.814 374.706 226.17C376.15 228.526 376.872 231.262 376.872 234.378C376.872 237.418 376.15 240.135 374.706 242.529C373.262 244.885 371.267 246.747 368.721 248.115C366.175 249.483 363.287 250.167 360.057 250.167ZM360.057 242.871C361.539 242.871 362.869 242.529 364.047 241.845C365.225 241.161 366.156 240.192 366.84 238.938C367.524 237.646 367.866 236.126 367.866 234.378C367.866 232.592 367.524 231.072 366.84 229.818C366.156 228.564 365.225 227.595 364.047 226.911C362.869 226.227 361.539 225.885 360.057 225.885C358.575 225.885 357.245 226.227 356.067 226.911C354.889 227.595 353.939 228.564 353.217 229.818C352.533 231.072 352.191 232.592 352.191 234.378C352.191 236.126 352.533 237.646 353.217 238.938C353.939 240.192 354.889 241.161 356.067 241.845C357.245 242.529 358.575 242.871 360.057 242.871ZM393.133 250.167C390.511 250.167 387.984 249.863 385.552 249.255C383.158 248.609 381.258 247.811 379.852 246.861L382.816 240.477C384.222 241.351 385.875 242.073 387.775 242.643C389.713 243.175 391.613 243.441 393.475 243.441C395.527 243.441 396.971 243.194 397.807 242.7C398.681 242.206 399.118 241.522 399.118 240.648C399.118 239.926 398.776 239.394 398.092 239.052C397.446 238.672 396.572 238.387 395.47 238.197C394.368 238.007 393.152 237.817 391.822 237.627C390.53 237.437 389.219 237.19 387.889 236.886C386.559 236.544 385.343 236.05 384.241 235.404C383.139 234.758 382.246 233.884 381.562 232.782C380.916 231.68 380.593 230.255 380.593 228.507C380.593 226.569 381.144 224.859 382.246 223.377C383.386 221.895 385.02 220.736 387.148 219.9C389.276 219.026 391.822 218.589 394.786 218.589C396.876 218.589 399.004 218.817 401.17 219.273C403.336 219.729 405.141 220.394 406.585 221.268L403.621 227.595C402.139 226.721 400.638 226.132 399.118 225.828C397.636 225.486 396.192 225.315 394.786 225.315C392.81 225.315 391.366 225.581 390.454 226.113C389.542 226.645 389.086 227.329 389.086 228.165C389.086 228.925 389.409 229.495 390.055 229.875C390.739 230.255 391.632 230.559 392.734 230.787C393.836 231.015 395.033 231.224 396.325 231.414C397.655 231.566 398.985 231.813 400.315 232.155C401.645 232.497 402.842 232.991 403.906 233.637C405.008 234.245 405.901 235.1 406.585 236.202C407.269 237.266 407.611 238.672 407.611 240.42C407.611 242.32 407.041 244.011 405.901 245.493C404.761 246.937 403.108 248.077 400.942 248.913C398.814 249.749 396.211 250.167 393.133 250.167ZM448.05 249.711V243.726L447.48 242.415V231.699C447.48 229.799 446.891 228.317 445.713 227.253C444.573 226.189 442.806 225.657 440.412 225.657C438.778 225.657 437.163 225.923 435.567 226.455C434.009 226.949 432.679 227.633 431.577 228.507L428.385 222.294C430.057 221.116 432.071 220.204 434.427 219.558C436.783 218.912 439.177 218.589 441.609 218.589C446.283 218.589 449.912 219.691 452.496 221.895C455.08 224.099 456.372 227.538 456.372 232.212V249.711H448.05ZM438.702 250.167C436.308 250.167 434.256 249.768 432.546 248.97C430.836 248.134 429.525 247.013 428.613 245.607C427.701 244.201 427.245 242.624 427.245 240.876C427.245 239.052 427.682 237.456 428.556 236.088C429.468 234.72 430.893 233.656 432.831 232.896C434.769 232.098 437.296 231.699 440.412 231.699H448.563V236.886H441.381C439.291 236.886 437.847 237.228 437.049 237.912C436.289 238.596 435.909 239.451 435.909 240.477C435.909 241.617 436.346 242.529 437.22 243.213C438.132 243.859 439.367 244.182 440.925 244.182C442.407 244.182 443.737 243.84 444.915 243.156C446.093 242.434 446.948 241.389 447.48 240.021L448.848 244.125C448.202 246.101 447.024 247.602 445.314 248.628C443.604 249.654 441.4 250.167 438.702 250.167ZM462.139 261.225C460.771 261.225 459.46 261.073 458.206 260.769C456.952 260.503 455.888 260.085 455.014 259.515L457.408 253.074C458.434 253.796 459.688 254.157 461.17 254.157C462.272 254.157 463.146 253.777 463.792 253.017C464.476 252.295 464.818 251.193 464.818 249.711V219.045H473.71V249.654C473.71 253.188 472.703 256 470.689 258.09C468.675 260.18 465.825 261.225 462.139 261.225ZM469.264 214.77C467.63 214.77 466.3 214.295 465.274 213.345C464.248 212.395 463.735 211.217 463.735 209.811C463.735 208.405 464.248 207.227 465.274 206.277C466.3 205.327 467.63 204.852 469.264 204.852C470.898 204.852 472.228 205.308 473.254 206.22C474.28 207.094 474.793 208.234 474.793 209.64C474.793 211.122 474.28 212.357 473.254 213.345C472.266 214.295 470.936 214.77 469.264 214.77ZM494.837 250.167C492.291 250.167 490.011 249.673 487.997 248.685C486.021 247.697 484.482 246.196 483.38 244.182C482.278 242.13 481.727 239.527 481.727 236.373V219.045H490.619V235.062C490.619 237.608 491.151 239.489 492.215 240.705C493.317 241.883 494.856 242.472 496.832 242.472C498.2 242.472 499.416 242.187 500.48 241.617C501.544 241.009 502.38 240.097 502.988 238.881C503.596 237.627 503.9 236.069 503.9 234.207V219.045H512.792V249.711H504.356V241.275L505.895 243.726C504.869 245.854 503.349 247.469 501.335 248.571C499.359 249.635 497.193 250.167 494.837 250.167ZM534.197 250.167C531.309 250.167 528.706 249.521 526.388 248.229C524.07 246.899 522.227 245.056 520.859 242.7C519.529 240.344 518.864 237.57 518.864 234.378C518.864 231.148 519.529 228.355 520.859 225.999C522.227 223.643 524.07 221.819 526.388 220.527C528.706 219.235 531.309 218.589 534.197 218.589C536.781 218.589 539.042 219.159 540.98 220.299C542.918 221.439 544.419 223.168 545.483 225.486C546.547 227.804 547.079 230.768 547.079 234.378C547.079 237.95 546.566 240.914 545.54 243.27C544.514 245.588 543.032 247.317 541.094 248.457C539.194 249.597 536.895 250.167 534.197 250.167ZM535.736 242.871C537.18 242.871 538.491 242.529 539.669 241.845C540.847 241.161 541.778 240.192 542.462 238.938C543.184 237.646 543.545 236.126 543.545 234.378C543.545 232.592 543.184 231.072 542.462 229.818C541.778 228.564 540.847 227.595 539.669 226.911C538.491 226.227 537.18 225.885 535.736 225.885C534.254 225.885 532.924 226.227 531.746 226.911C530.568 227.595 529.618 228.564 528.896 229.818C528.212 231.072 527.87 232.592 527.87 234.378C527.87 236.126 528.212 237.646 528.896 238.938C529.618 240.192 530.568 241.161 531.746 241.845C532.924 242.529 534.254 242.871 535.736 242.871ZM543.773 249.711V243.441L543.944 234.321L543.374 225.258V207.417H552.266V249.711H543.773ZM575.715 250.167C572.219 250.167 569.141 249.483 566.481 248.115C563.859 246.747 561.826 244.885 560.382 242.529C558.938 240.135 558.216 237.418 558.216 234.378C558.216 231.3 558.919 228.583 560.325 226.227C561.769 223.833 563.726 221.971 566.196 220.641C568.666 219.273 571.459 218.589 574.575 218.589C577.577 218.589 580.275 219.235 582.669 220.527C585.101 221.781 587.02 223.605 588.426 225.999C589.832 228.355 590.535 231.186 590.535 234.492C590.535 234.834 590.516 235.233 590.478 235.689C590.44 236.107 590.402 236.506 590.364 236.886H565.455V231.699H585.69L582.27 233.238C582.27 231.642 581.947 230.255 581.301 229.077C580.655 227.899 579.762 226.987 578.622 226.341C577.482 225.657 576.152 225.315 574.632 225.315C573.112 225.315 571.763 225.657 570.585 226.341C569.445 226.987 568.552 227.918 567.906 229.134C567.26 230.312 566.937 231.718 566.937 233.352V234.72C566.937 236.392 567.298 237.874 568.02 239.166C568.78 240.42 569.825 241.389 571.155 242.073C572.523 242.719 574.119 243.042 575.943 243.042C577.577 243.042 579.002 242.795 580.218 242.301C581.472 241.807 582.612 241.066 583.638 240.078L588.369 245.208C586.963 246.804 585.196 248.039 583.068 248.913C580.94 249.749 578.489 250.167 575.715 250.167ZM631.407 249.711V243.726L630.837 242.415V231.699C630.837 229.799 630.248 228.317 629.07 227.253C627.93 226.189 626.163 225.657 623.769 225.657C622.135 225.657 620.52 225.923 618.924 226.455C617.366 226.949 616.036 227.633 614.934 228.507L611.742 222.294C613.414 221.116 615.428 220.204 617.784 219.558C620.14 218.912 622.534 218.589 624.966 218.589C629.64 218.589 633.269 219.691 635.853 221.895C638.437 224.099 639.729 227.538 639.729 232.212V249.711H631.407ZM622.059 250.167C619.665 250.167 617.613 249.768 615.903 248.97C614.193 248.134 612.882 247.013 611.97 245.607C611.058 244.201 610.602 242.624 610.602 240.876C610.602 239.052 611.039 237.456 611.913 236.088C612.825 234.72 614.25 233.656 616.188 232.896C618.126 232.098 620.653 231.699 623.769 231.699H631.92V236.886H624.738C622.648 236.886 621.204 237.228 620.406 237.912C619.646 238.596 619.266 239.451 619.266 240.477C619.266 241.617 619.703 242.529 620.577 243.213C621.489 243.859 622.724 244.182 624.282 244.182C625.764 244.182 627.094 243.84 628.272 243.156C629.45 242.434 630.305 241.389 630.837 240.021L632.205 244.125C631.559 246.101 630.381 247.602 628.671 248.628C626.961 249.654 624.757 250.167 622.059 250.167ZM313.948 299.031C312.134 299.031 310.548 298.631 309.188 297.831C307.828 297.031 306.761 295.818 305.988 294.191C305.241 292.538 304.868 290.458 304.868 287.951C304.868 285.418 305.228 283.338 305.948 281.711C306.668 280.084 307.708 278.871 309.068 278.071C310.428 277.271 312.054 276.871 313.948 276.871C315.974 276.871 317.788 277.338 319.388 278.271C321.014 279.178 322.294 280.458 323.228 282.111C324.188 283.764 324.668 285.711 324.668 287.951C324.668 290.218 324.188 292.178 323.228 293.831C322.294 295.484 321.014 296.764 319.388 297.671C317.788 298.578 315.974 299.031 313.948 299.031ZM301.228 306.471V277.191H307.188V281.591L307.068 287.991L307.468 294.351V306.471H301.228ZM312.868 293.911C313.908 293.911 314.828 293.671 315.628 293.191C316.454 292.711 317.108 292.031 317.588 291.151C318.094 290.244 318.348 289.178 318.348 287.951C318.348 286.698 318.094 285.631 317.588 284.751C317.108 283.871 316.454 283.191 315.628 282.711C314.828 282.231 313.908 281.991 312.868 281.991C311.828 281.991 310.894 282.231 310.068 282.711C309.241 283.191 308.588 283.871 308.108 284.751C307.628 285.631 307.388 286.698 307.388 287.951C307.388 289.178 307.628 290.244 308.108 291.151C308.588 292.031 309.241 292.711 310.068 293.191C310.894 293.671 311.828 293.911 312.868 293.911ZM339.525 299.031C337.072 299.031 334.912 298.551 333.045 297.591C331.205 296.631 329.778 295.324 328.765 293.671C327.752 291.991 327.245 290.084 327.245 287.951C327.245 285.791 327.738 283.884 328.725 282.231C329.738 280.551 331.112 279.244 332.845 278.311C334.578 277.351 336.538 276.871 338.725 276.871C340.832 276.871 342.725 277.324 344.405 278.231C346.112 279.111 347.458 280.391 348.445 282.071C349.432 283.724 349.925 285.711 349.925 288.031C349.925 288.271 349.912 288.551 349.885 288.871C349.858 289.164 349.832 289.444 349.805 289.711H332.325V286.071H346.525L344.125 287.151C344.125 286.031 343.898 285.058 343.445 284.231C342.992 283.404 342.365 282.764 341.565 282.311C340.765 281.831 339.832 281.591 338.765 281.591C337.698 281.591 336.752 281.831 335.925 282.311C335.125 282.764 334.498 283.418 334.045 284.271C333.592 285.098 333.365 286.084 333.365 287.231V288.191C333.365 289.364 333.618 290.404 334.125 291.311C334.658 292.191 335.392 292.871 336.325 293.351C337.285 293.804 338.405 294.031 339.685 294.031C340.832 294.031 341.832 293.858 342.685 293.511C343.565 293.164 344.365 292.644 345.085 291.951L348.405 295.551C347.418 296.671 346.178 297.538 344.685 298.151C343.192 298.738 341.472 299.031 339.525 299.031ZM354.079 298.711V277.191H360.039V283.271L359.199 281.511C359.839 279.991 360.866 278.844 362.279 278.071C363.693 277.271 365.413 276.871 367.439 276.871V282.631C367.173 282.604 366.933 282.591 366.719 282.591C366.506 282.564 366.279 282.551 366.039 282.551C364.333 282.551 362.946 283.044 361.879 284.031C360.839 284.991 360.319 286.498 360.319 288.551V298.711H354.079ZM378.546 299.031C376.706 299.031 374.932 298.818 373.226 298.391C371.546 297.938 370.212 297.378 369.226 296.711L371.306 292.231C372.292 292.844 373.452 293.351 374.786 293.751C376.146 294.124 377.479 294.311 378.786 294.311C380.226 294.311 381.239 294.138 381.826 293.791C382.439 293.444 382.746 292.964 382.746 292.351C382.746 291.844 382.506 291.471 382.026 291.231C381.572 290.964 380.959 290.764 380.186 290.631C379.412 290.498 378.559 290.364 377.626 290.231C376.719 290.098 375.799 289.924 374.866 289.711C373.932 289.471 373.079 289.124 372.306 288.671C371.532 288.218 370.906 287.604 370.426 286.831C369.972 286.058 369.746 285.058 369.746 283.831C369.746 282.471 370.132 281.271 370.906 280.231C371.706 279.191 372.852 278.378 374.346 277.791C375.839 277.178 377.626 276.871 379.706 276.871C381.172 276.871 382.666 277.031 384.186 277.351C385.706 277.671 386.972 278.138 387.986 278.751L385.906 283.191C384.866 282.578 383.812 282.164 382.746 281.951C381.706 281.711 380.692 281.591 379.706 281.591C378.319 281.591 377.306 281.778 376.666 282.151C376.026 282.524 375.706 283.004 375.706 283.591C375.706 284.124 375.932 284.524 376.386 284.791C376.866 285.058 377.492 285.271 378.266 285.431C379.039 285.591 379.879 285.738 380.786 285.871C381.719 285.978 382.652 286.151 383.586 286.391C384.519 286.631 385.359 286.978 386.106 287.431C386.879 287.858 387.506 288.458 387.986 289.231C388.466 289.978 388.706 290.964 388.706 292.191C388.706 293.524 388.306 294.711 387.506 295.751C386.706 296.764 385.546 297.564 384.026 298.151C382.532 298.738 380.706 299.031 378.546 299.031ZM402.796 299.031C400.502 299.031 398.462 298.551 396.676 297.591C394.916 296.631 393.516 295.324 392.476 293.671C391.462 291.991 390.956 290.084 390.956 287.951C390.956 285.791 391.462 283.884 392.476 282.231C393.516 280.551 394.916 279.244 396.676 278.311C398.462 277.351 400.502 276.871 402.796 276.871C405.062 276.871 407.089 277.351 408.876 278.311C410.662 279.244 412.062 280.538 413.076 282.191C414.089 283.844 414.596 285.764 414.596 287.951C414.596 290.084 414.089 291.991 413.076 293.671C412.062 295.324 410.662 296.631 408.876 297.591C407.089 298.551 405.062 299.031 402.796 299.031ZM402.796 293.911C403.836 293.911 404.769 293.671 405.596 293.191C406.422 292.711 407.076 292.031 407.556 291.151C408.036 290.244 408.276 289.178 408.276 287.951C408.276 286.698 408.036 285.631 407.556 284.751C407.076 283.871 406.422 283.191 405.596 282.711C404.769 282.231 403.836 281.991 402.796 281.991C401.756 281.991 400.822 282.231 399.996 282.711C399.169 283.191 398.502 283.871 397.996 284.751C397.516 285.631 397.276 286.698 397.276 287.951C397.276 289.178 397.516 290.244 397.996 291.151C398.502 292.031 399.169 292.711 399.996 293.191C400.822 293.671 401.756 293.911 402.796 293.911ZM431.847 276.871C433.553 276.871 435.073 277.218 436.407 277.911C437.767 278.578 438.833 279.618 439.607 281.031C440.38 282.418 440.767 284.204 440.767 286.391V298.711H434.527V287.351C434.527 285.618 434.14 284.338 433.367 283.511C432.62 282.684 431.553 282.271 430.167 282.271C429.18 282.271 428.287 282.484 427.487 282.911C426.713 283.311 426.1 283.938 425.647 284.791C425.22 285.644 425.007 286.738 425.007 288.071V298.711H418.767V277.191H424.727V283.151L423.607 281.351C424.38 279.911 425.487 278.804 426.927 278.031C428.367 277.258 430.007 276.871 431.847 276.871ZM459.623 298.711V294.511L459.223 293.591V286.071C459.223 284.738 458.81 283.698 457.983 282.951C457.183 282.204 455.943 281.831 454.263 281.831C453.116 281.831 451.983 282.018 450.863 282.391C449.77 282.738 448.836 283.218 448.063 283.831L445.823 279.471C446.996 278.644 448.41 278.004 450.063 277.551C451.716 277.098 453.396 276.871 455.103 276.871C458.383 276.871 460.93 277.644 462.743 279.191C464.556 280.738 465.463 283.151 465.463 286.431V298.711H459.623ZM453.063 299.031C451.383 299.031 449.943 298.751 448.743 298.191C447.543 297.604 446.623 296.818 445.983 295.831C445.343 294.844 445.023 293.738 445.023 292.511C445.023 291.231 445.33 290.111 445.943 289.151C446.583 288.191 447.583 287.444 448.943 286.911C450.303 286.351 452.076 286.071 454.263 286.071H459.983V289.711H454.943C453.476 289.711 452.463 289.951 451.903 290.431C451.37 290.911 451.103 291.511 451.103 292.231C451.103 293.031 451.41 293.671 452.023 294.151C452.663 294.604 453.53 294.831 454.623 294.831C455.663 294.831 456.596 294.591 457.423 294.111C458.25 293.604 458.85 292.871 459.223 291.911L460.183 294.791C459.73 296.178 458.903 297.231 457.703 297.951C456.503 298.671 454.956 299.031 453.063 299.031ZM471.11 298.711V269.031H477.35V298.711H471.11ZM483.142 298.711V277.191H489.382V298.711H483.142ZM486.262 274.191C485.115 274.191 484.182 273.858 483.462 273.191C482.742 272.524 482.382 271.698 482.382 270.711C482.382 269.724 482.742 268.898 483.462 268.231C484.182 267.564 485.115 267.231 486.262 267.231C487.408 267.231 488.342 267.551 489.062 268.191C489.782 268.804 490.142 269.604 490.142 270.591C490.142 271.631 489.782 272.498 489.062 273.191C488.368 273.858 487.435 274.191 486.262 274.191ZM493.693 298.711V294.951L506.413 279.911L507.493 281.991H493.973V277.191H512.533V280.951L499.813 295.991L498.693 293.911H512.893V298.711H493.693ZM530.092 298.711V294.511L529.692 293.591V286.071C529.692 284.738 529.278 283.698 528.452 282.951C527.652 282.204 526.412 281.831 524.732 281.831C523.585 281.831 522.452 282.018 521.332 282.391C520.238 282.738 519.305 283.218 518.532 283.831L516.292 279.471C517.465 278.644 518.878 278.004 520.532 277.551C522.185 277.098 523.865 276.871 525.572 276.871C528.852 276.871 531.398 277.644 533.212 279.191C535.025 280.738 535.932 283.151 535.932 286.431V298.711H530.092ZM523.532 299.031C521.852 299.031 520.412 298.751 519.212 298.191C518.012 297.604 517.092 296.818 516.452 295.831C515.812 294.844 515.492 293.738 515.492 292.511C515.492 291.231 515.798 290.111 516.412 289.151C517.052 288.191 518.052 287.444 519.412 286.911C520.772 286.351 522.545 286.071 524.732 286.071H530.452V289.711H525.412C523.945 289.711 522.932 289.951 522.372 290.431C521.838 290.911 521.572 291.511 521.572 292.231C521.572 293.031 521.878 293.671 522.492 294.151C523.132 294.604 523.998 294.831 525.092 294.831C526.132 294.831 527.065 294.591 527.892 294.111C528.718 293.604 529.318 292.871 529.692 291.911L530.652 294.791C530.198 296.178 529.372 297.231 528.172 297.951C526.972 298.671 525.425 299.031 523.532 299.031ZM541.579 298.711V277.191H547.539V283.271L546.699 281.511C547.339 279.991 548.366 278.844 549.779 278.071C551.193 277.271 552.913 276.871 554.939 276.871V282.631C554.673 282.604 554.433 282.591 554.219 282.591C554.006 282.564 553.779 282.551 553.539 282.551C551.833 282.551 550.446 283.044 549.379 284.031C548.339 284.991 547.819 286.498 547.819 288.551V298.711H541.579ZM577.374 299.031C575.534 299.031 573.761 298.818 572.054 298.391C570.374 297.938 569.041 297.378 568.054 296.711L570.134 292.231C571.121 292.844 572.281 293.351 573.614 293.751C574.974 294.124 576.307 294.311 577.614 294.311C579.054 294.311 580.067 294.138 580.654 293.791C581.267 293.444 581.574 292.964 581.574 292.351C581.574 291.844 581.334 291.471 580.854 291.231C580.401 290.964 579.787 290.764 579.014 290.631C578.241 290.498 577.387 290.364 576.454 290.231C575.547 290.098 574.627 289.924 573.694 289.711C572.761 289.471 571.907 289.124 571.134 288.671C570.361 288.218 569.734 287.604 569.254 286.831C568.801 286.058 568.574 285.058 568.574 283.831C568.574 282.471 568.961 281.271 569.734 280.231C570.534 279.191 571.681 278.378 573.174 277.791C574.667 277.178 576.454 276.871 578.534 276.871C580.001 276.871 581.494 277.031 583.014 277.351C584.534 277.671 585.801 278.138 586.814 278.751L584.734 283.191C583.694 282.578 582.641 282.164 581.574 281.951C580.534 281.711 579.521 281.591 578.534 281.591C577.147 281.591 576.134 281.778 575.494 282.151C574.854 282.524 574.534 283.004 574.534 283.591C574.534 284.124 574.761 284.524 575.214 284.791C575.694 285.058 576.321 285.271 577.094 285.431C577.867 285.591 578.707 285.738 579.614 285.871C580.547 285.978 581.481 286.151 582.414 286.391C583.347 286.631 584.187 286.978 584.934 287.431C585.707 287.858 586.334 288.458 586.814 289.231C587.294 289.978 587.534 290.964 587.534 292.191C587.534 293.524 587.134 294.711 586.334 295.751C585.534 296.764 584.374 297.564 582.854 298.151C581.361 298.738 579.534 299.031 577.374 299.031ZM600.464 299.031C598.677 299.031 597.077 298.684 595.664 297.991C594.277 297.298 593.197 296.244 592.424 294.831C591.651 293.391 591.264 291.564 591.264 289.351V277.191H597.504V288.431C597.504 290.218 597.877 291.538 598.624 292.391C599.397 293.218 600.477 293.631 601.864 293.631C602.824 293.631 603.677 293.431 604.424 293.031C605.171 292.604 605.757 291.964 606.184 291.111C606.611 290.231 606.824 289.138 606.824 287.831V277.191H613.064V298.711H607.144V292.791L608.224 294.511C607.504 296.004 606.437 297.138 605.024 297.911C603.637 298.658 602.117 299.031 600.464 299.031ZM632.045 298.711V294.511L631.645 293.591V286.071C631.645 284.738 631.232 283.698 630.405 282.951C629.605 282.204 628.365 281.831 626.685 281.831C625.538 281.831 624.405 282.018 623.285 282.391C622.192 282.738 621.258 283.218 620.485 283.831L618.245 279.471C619.418 278.644 620.832 278.004 622.485 277.551C624.138 277.098 625.818 276.871 627.525 276.871C630.805 276.871 633.352 277.644 635.165 279.191C636.978 280.738 637.885 283.151 637.885 286.431V298.711H632.045ZM625.485 299.031C623.805 299.031 622.365 298.751 621.165 298.191C619.965 297.604 619.045 296.818 618.405 295.831C617.765 294.844 617.445 293.738 617.445 292.511C617.445 291.231 617.752 290.111 618.365 289.151C619.005 288.191 620.005 287.444 621.365 286.911C622.725 286.351 624.498 286.071 626.685 286.071H632.405V289.711H627.365C625.898 289.711 624.885 289.951 624.325 290.431C623.792 290.911 623.525 291.511 623.525 292.231C623.525 293.031 623.832 293.671 624.445 294.151C625.085 294.604 625.952 294.831 627.045 294.831C628.085 294.831 629.018 294.591 629.845 294.111C630.672 293.604 631.272 292.871 631.645 291.911L632.605 294.791C632.152 296.178 631.325 297.231 630.125 297.951C628.925 298.671 627.378 299.031 625.485 299.031ZM312.645 366.151C309.271 366.151 306.301 365.491 303.735 364.171C301.205 362.851 299.243 361.054 297.85 358.781C296.456 356.471 295.76 353.849 295.76 350.916C295.76 347.946 296.438 345.324 297.795 343.051C299.188 340.741 301.076 338.944 303.46 337.661C305.843 336.341 308.538 335.681 311.545 335.681C314.441 335.681 317.045 336.304 319.355 337.551C321.701 338.761 323.553 340.521 324.91 342.831C326.266 345.104 326.945 347.836 326.945 351.026C326.945 351.356 326.926 351.741 326.89 352.181C326.853 352.584 326.816 352.969 326.78 353.336H302.745V348.331H322.27L318.97 349.816C318.97 348.276 318.658 346.938 318.035 345.801C317.411 344.664 316.55 343.784 315.45 343.161C314.35 342.501 313.066 342.171 311.6 342.171C310.133 342.171 308.831 342.501 307.695 343.161C306.595 343.784 305.733 344.683 305.11 345.856C304.486 346.993 304.175 348.349 304.175 349.926V351.246C304.175 352.859 304.523 354.289 305.22 355.536C305.953 356.746 306.961 357.681 308.245 358.341C309.565 358.964 311.105 359.276 312.865 359.276C314.441 359.276 315.816 359.038 316.99 358.561C318.2 358.084 319.3 357.369 320.29 356.416L324.855 361.366C323.498 362.906 321.793 364.098 319.74 364.941C317.686 365.748 315.321 366.151 312.645 366.151ZM328.111 365.711L341.366 348.331L341.201 353.061L328.496 336.121H338.121L346.151 347.176L342.521 347.286L350.826 336.121H359.956L347.196 352.896V348.276L360.396 365.711H350.661L342.246 353.941L345.821 354.436L337.461 365.711H328.111ZM382.051 366.151C379.558 366.151 377.376 365.601 375.506 364.501C373.636 363.401 372.169 361.733 371.106 359.496C370.079 357.223 369.566 354.363 369.566 350.916C369.566 347.433 370.061 344.573 371.051 342.336C372.041 340.099 373.471 338.431 375.341 337.331C377.211 336.231 379.448 335.681 382.051 335.681C384.838 335.681 387.331 336.323 389.531 337.606C391.768 338.853 393.528 340.613 394.811 342.886C396.131 345.159 396.791 347.836 396.791 350.916C396.791 354.033 396.131 356.728 394.811 359.001C393.528 361.274 391.768 363.034 389.531 364.281C387.331 365.528 384.838 366.151 382.051 366.151ZM364.561 376.381V336.121H372.756V342.171L372.591 350.971L373.141 359.716V376.381H364.561ZM380.566 359.111C381.996 359.111 383.261 358.781 384.361 358.121C385.498 357.461 386.396 356.526 387.056 355.316C387.753 354.069 388.101 352.603 388.101 350.916C388.101 349.193 387.753 347.726 387.056 346.516C386.396 345.306 385.498 344.371 384.361 343.711C383.261 343.051 381.996 342.721 380.566 342.721C379.136 342.721 377.853 343.051 376.716 343.711C375.579 344.371 374.681 345.306 374.021 346.516C373.361 347.726 373.031 349.193 373.031 350.916C373.031 352.603 373.361 354.069 374.021 355.316C374.681 356.526 375.579 357.461 376.716 358.121C377.853 358.781 379.136 359.111 380.566 359.111ZM417.22 366.151C413.846 366.151 410.876 365.491 408.31 364.171C405.78 362.851 403.818 361.054 402.425 358.781C401.031 356.471 400.335 353.849 400.335 350.916C400.335 347.946 401.013 345.324 402.37 343.051C403.763 340.741 405.651 338.944 408.035 337.661C410.418 336.341 413.113 335.681 416.12 335.681C419.016 335.681 421.62 336.304 423.93 337.551C426.276 338.761 428.128 340.521 429.485 342.831C430.841 345.104 431.52 347.836 431.52 351.026C431.52 351.356 431.501 351.741 431.465 352.181C431.428 352.584 431.391 352.969 431.355 353.336H407.32V348.331H426.845L423.545 349.816C423.545 348.276 423.233 346.938 422.61 345.801C421.986 344.664 421.125 343.784 420.025 343.161C418.925 342.501 417.641 342.171 416.175 342.171C414.708 342.171 413.406 342.501 412.27 343.161C411.17 343.784 410.308 344.683 409.685 345.856C409.061 346.993 408.75 348.349 408.75 349.926V351.246C408.75 352.859 409.098 354.289 409.795 355.536C410.528 356.746 411.536 357.681 412.82 358.341C414.14 358.964 415.68 359.276 417.44 359.276C419.016 359.276 420.391 359.038 421.565 358.561C422.775 358.084 423.875 357.369 424.865 356.416L429.43 361.366C428.073 362.906 426.368 364.098 424.315 364.941C422.261 365.748 419.896 366.151 417.22 366.151ZM437.232 365.711V336.121H445.427V344.481L444.272 342.061C445.152 339.971 446.564 338.394 448.507 337.331C450.45 336.231 452.815 335.681 455.602 335.681V343.601C455.235 343.564 454.905 343.546 454.612 343.546C454.319 343.509 454.007 343.491 453.677 343.491C451.33 343.491 449.424 344.169 447.957 345.526C446.527 346.846 445.812 348.918 445.812 351.741V365.711H437.232ZM460.757 365.711V336.121H469.337V365.711H460.757ZM465.047 331.996C463.471 331.996 462.187 331.538 461.197 330.621C460.207 329.704 459.712 328.568 459.712 327.211C459.712 325.854 460.207 324.718 461.197 323.801C462.187 322.884 463.471 322.426 465.047 322.426C466.624 322.426 467.907 322.866 468.897 323.746C469.887 324.589 470.382 325.689 470.382 327.046C470.382 328.476 469.887 329.668 468.897 330.621C467.944 331.538 466.661 331.996 465.047 331.996ZM491.985 366.151C488.612 366.151 485.642 365.491 483.075 364.171C480.545 362.851 478.584 361.054 477.19 358.781C475.797 356.471 475.1 353.849 475.1 350.916C475.1 347.946 475.779 345.324 477.135 343.051C478.529 340.741 480.417 338.944 482.8 337.661C485.184 336.341 487.879 335.681 490.885 335.681C493.782 335.681 496.385 336.304 498.695 337.551C501.042 338.761 502.894 340.521 504.25 342.831C505.607 345.104 506.285 347.836 506.285 351.026C506.285 351.356 506.267 351.741 506.23 352.181C506.194 352.584 506.157 352.969 506.12 353.336H482.085V348.331H501.61L498.31 349.816C498.31 348.276 497.999 346.938 497.375 345.801C496.752 344.664 495.89 343.784 494.79 343.161C493.69 342.501 492.407 342.171 490.94 342.171C489.474 342.171 488.172 342.501 487.035 343.161C485.935 343.784 485.074 344.683 484.45 345.856C483.827 346.993 483.515 348.349 483.515 349.926V351.246C483.515 352.859 483.864 354.289 484.56 355.536C485.294 356.746 486.302 357.681 487.585 358.341C488.905 358.964 490.445 359.276 492.205 359.276C493.782 359.276 495.157 359.038 496.33 358.561C497.54 358.084 498.64 357.369 499.63 356.416L504.195 361.366C502.839 362.906 501.134 364.098 499.08 364.941C497.027 365.748 494.662 366.151 491.985 366.151ZM479.665 332.326L486.925 324.406H494.515L501.775 332.326H495.505L487.915 325.726H493.525L485.935 332.326H479.665ZM529.983 335.681C532.329 335.681 534.419 336.158 536.253 337.111C538.123 338.028 539.589 339.458 540.653 341.401C541.716 343.308 542.248 345.764 542.248 348.771V365.711H533.668V350.091C533.668 347.708 533.136 345.948 532.073 344.811C531.046 343.674 529.579 343.106 527.673 343.106C526.316 343.106 525.088 343.399 523.988 343.986C522.924 344.536 522.081 345.398 521.458 346.571C520.871 347.744 520.578 349.248 520.578 351.081V365.711H511.998V336.121H520.193V344.316L518.653 341.841C519.716 339.861 521.238 338.339 523.218 337.276C525.198 336.213 527.453 335.681 529.983 335.681ZM564.54 366.151C561.35 366.151 558.508 365.509 556.015 364.226C553.521 362.906 551.56 361.091 550.13 358.781C548.736 356.471 548.04 353.849 548.04 350.916C548.04 347.946 548.736 345.324 550.13 343.051C551.56 340.741 553.521 338.944 556.015 337.661C558.508 336.341 561.35 335.681 564.54 335.681C567.656 335.681 570.37 336.341 572.68 337.661C574.99 338.944 576.695 340.796 577.795 343.216L571.14 346.791C570.37 345.398 569.398 344.371 568.225 343.711C567.088 343.051 565.841 342.721 564.485 342.721C563.018 342.721 561.698 343.051 560.525 343.711C559.351 344.371 558.416 345.306 557.72 346.516C557.06 347.726 556.73 349.193 556.73 350.916C556.73 352.639 557.06 354.106 557.72 355.316C558.416 356.526 559.351 357.461 560.525 358.121C561.698 358.781 563.018 359.111 564.485 359.111C565.841 359.111 567.088 358.799 568.225 358.176C569.398 357.516 570.37 356.471 571.14 355.041L577.795 358.671C576.695 361.054 574.99 362.906 572.68 364.226C570.37 365.509 567.656 366.151 564.54 366.151ZM582.574 365.711V336.121H591.154V365.711H582.574ZM586.864 331.996C585.287 331.996 584.004 331.538 583.014 330.621C582.024 329.704 581.529 328.568 581.529 327.211C581.529 325.854 582.024 324.718 583.014 323.801C584.004 322.884 585.287 322.426 586.864 322.426C588.44 322.426 589.724 322.866 590.714 323.746C591.704 324.589 592.199 325.689 592.199 327.046C592.199 328.476 591.704 329.668 590.714 330.621C589.76 331.538 588.477 331.996 586.864 331.996ZM617.267 365.711V359.936L616.717 358.671V348.331C616.717 346.498 616.148 345.068 615.012 344.041C613.912 343.014 612.207 342.501 609.897 342.501C608.32 342.501 606.762 342.758 605.222 343.271C603.718 343.748 602.435 344.408 601.372 345.251L598.292 339.256C599.905 338.119 601.848 337.239 604.122 336.616C606.395 335.993 608.705 335.681 611.052 335.681C615.562 335.681 619.063 336.744 621.557 338.871C624.05 340.998 625.297 344.316 625.297 348.826V365.711H617.267ZM608.247 366.151C605.937 366.151 603.957 365.766 602.307 364.996C600.657 364.189 599.392 363.108 598.512 361.751C597.632 360.394 597.192 358.873 597.192 357.186C597.192 355.426 597.613 353.886 598.457 352.566C599.337 351.246 600.712 350.219 602.582 349.486C604.452 348.716 606.89 348.331 609.897 348.331H617.762V353.336H610.832C608.815 353.336 607.422 353.666 606.652 354.326C605.918 354.986 605.552 355.811 605.552 356.801C605.552 357.901 605.973 358.781 606.817 359.441C607.697 360.064 608.888 360.376 610.392 360.376C611.822 360.376 613.105 360.046 614.242 359.386C615.378 358.689 616.203 357.681 616.717 356.361L618.037 360.321C617.413 362.228 616.277 363.676 614.627 364.666C612.977 365.656 610.85 366.151 608.247 366.151ZM633.667 352.346L631.962 327.211H642.192L640.487 352.346H633.667ZM637.077 366.151C635.537 366.151 634.272 365.656 633.282 364.666C632.292 363.676 631.797 362.503 631.797 361.146C631.797 359.753 632.292 358.598 633.282 357.681C634.272 356.728 635.537 356.251 637.077 356.251C638.654 356.251 639.919 356.728 640.872 357.681C641.862 358.598 642.357 359.753 642.357 361.146C642.357 362.503 641.862 363.676 640.872 364.666C639.919 365.656 638.654 366.151 637.077 366.151Z" fill="white"/>
</g>
</g>
<defs>
<filter id="filter0_f_1766_3597" x="343.475" y="-392.058" width="783.539" height="783.539" filterUnits="userSpaceOnUse" color-interpolation-filters="sRGB">
<feFlood flood-opacity="0" result="BackgroundImageFix"/>
<feBlend mode="normal" in="SourceGraphic" in2="BackgroundImageFix" result="shape"/>
<feGaussianBlur stdDeviation="68.6111" result="effect1_foregroundBlur_1766_3597"/>
</filter>
<filter id="filter1_f_1766_3597" x="-546.411" y="-247.975" width="631.222" height="631.222" filterUnits="userSpaceOnUse" color-interpolation-filters="sRGB">
<feFlood flood-opacity="0" result="BackgroundImageFix"/>
<feBlend mode="normal" in="SourceGraphic" in2="BackgroundImageFix" result="shape"/>
<feGaussianBlur stdDeviation="68.6111" result="effect1_foregroundBlur_1766_3597"/>
</filter>
<filter id="filter2_f_1766_3597" x="-213.528" y="90.2776" width="817.844" height="817.844" filterUnits="userSpaceOnUse" color-interpolation-filters="sRGB">
<feFlood flood-opacity="0" result="BackgroundImageFix"/>
<feBlend mode="normal" in="SourceGraphic" in2="BackgroundImageFix" result="shape"/>
<feGaussianBlur stdDeviation="85.7639" result="effect1_foregroundBlur_1766_3597"/>
</filter>
<filter id="filter3_f_1766_3597" x="-402.328" y="-24.3029" width="640.828" height="640.828" filterUnits="userSpaceOnUse" color-interpolation-filters="sRGB">
<feFlood flood-opacity="0" result="BackgroundImageFix"/>
<feBlend mode="normal" in="SourceGraphic" in2="BackgroundImageFix" result="shape"/>
<feGaussianBlur stdDeviation="85.7639" result="effect1_foregroundBlur_1766_3597"/>
</filter>
<linearGradient id="paint0_linear_1766_3597" x1="469" y1="1.0239e-05" x2="469" y2="741" gradientUnits="userSpaceOnUse">
<stop stop-color="white"/>
<stop offset="0.403466" stop-color="#4EC9E3"/>
<stop offset="1" stop-color="#1E4F77"/>
</linearGradient>
<clipPath id="clip0_1766_3597">
<rect width="938" height="454" fill="white"/>
</clipPath>
<clipPath id="clip1_1766_3597">
<rect width="938" height="741" fill="white" transform="translate(0 -143)"/>
</clipPath>
</defs>
</svg>
