<svg width="257" height="77" viewBox="0 0 257 77" fill="none" xmlns="http://www.w3.org/2000/svg">
<path fill-rule="evenodd" clip-rule="evenodd" d="M251.301 48.3049C251.301 46.078 250.645 44.3621 249.331 43.1574C248.054 41.9161 246.12 41.2955 243.529 41.2955C241.814 41.2955 240.135 41.5875 238.493 42.1716C236.851 42.7193 235.464 43.4677 234.333 44.4169L232.144 40.474C233.64 39.2693 235.428 38.3566 237.508 37.736C239.624 37.0788 241.832 36.7502 244.131 36.7502C248.108 36.7502 251.174 37.7177 253.327 39.6526C255.48 41.5875 256.556 44.5446 256.556 48.524V66.0477H251.575V62.2404C250.867 63.2962 249.9 64.182 248.674 64.8977C246.922 65.8834 244.715 66.3763 242.051 66.3763C239.898 66.3763 238 66.0112 236.358 65.281C234.753 64.5509 233.512 63.5469 232.636 62.2692C231.76 60.9549 231.323 59.4763 231.323 57.8335C231.323 56.2636 231.687 54.8398 232.417 53.5621C233.184 52.2843 234.406 51.2621 236.085 50.4954C237.8 49.7287 240.099 49.3454 242.981 49.3454H251.301V48.3049ZM237.891 54.4382C238.803 53.5621 240.573 53.124 243.2 53.124H251.301V57.1763C250.645 58.8557 249.568 60.1334 248.072 61.0096C246.612 61.8858 244.897 62.3239 242.927 62.3239C240.92 62.3239 239.351 61.9041 238.219 61.0644C237.088 60.1882 236.523 59.0382 236.523 57.6144C236.523 56.3732 236.979 55.3144 237.891 54.4382Z" fill="#15AAB8"/>
<path fill-rule="evenodd" clip-rule="evenodd" d="M209.021 77C206.357 77 203.766 76.6167 201.248 75.85C198.767 75.1199 196.742 74.0612 195.173 72.6739L197.691 68.6215C199.041 69.7897 200.701 70.7024 202.672 71.3596C204.642 72.0532 206.704 72.4 208.857 72.4C212.287 72.4 214.805 71.5969 216.41 69.9905C218.016 68.3842 218.819 65.9382 218.819 62.6525V60.3436C217.801 61.5816 216.579 62.5702 215.151 63.3096C213.108 64.3318 210.846 64.8429 208.364 64.8429C205.554 64.8429 203.036 64.2588 200.81 63.0906C198.621 61.8858 196.869 60.2247 195.556 58.1073C194.279 55.9898 193.64 53.5438 193.64 50.7692C193.64 47.9581 194.279 45.5121 195.556 43.4312C196.869 41.3137 198.621 39.6709 200.81 38.5026C203.036 37.3344 205.554 36.7502 208.364 36.7502C210.846 36.7502 213.108 37.2614 215.151 38.2836C216.709 39.0348 218.023 40.1041 219.092 41.4916V37.0241H224.073V62.1049C224.073 67.216 222.796 70.9762 220.242 73.3858C217.688 75.7953 213.947 77 209.021 77ZM214.111 59.0382C212.615 59.8414 210.9 60.243 208.966 60.243C207.032 60.243 205.299 59.8414 203.766 59.0382C202.27 58.235 201.084 57.1216 200.208 55.6978C199.369 54.274 198.949 52.6311 198.949 50.7692C198.949 48.9073 199.369 47.2645 200.208 45.8407C201.084 44.4169 202.27 43.3216 203.766 42.555C205.299 41.7518 207.032 41.3502 208.966 41.3502C210.9 41.3502 212.615 41.7518 214.111 42.555C215.608 43.3216 216.775 44.4169 217.615 45.8407C218.49 47.2645 218.928 48.9073 218.928 50.7692C218.928 52.6311 218.49 54.274 217.615 55.6978C216.775 57.1216 215.608 58.235 214.111 59.0382Z" fill="#15AAB8"/>
<path fill-rule="evenodd" clip-rule="evenodd" d="M176.272 66.3763C173.17 66.3763 170.434 65.7374 168.062 64.4596C165.726 63.1818 163.902 61.4295 162.588 59.2025C161.311 56.9755 160.672 54.42 160.672 51.5359C160.672 48.6518 161.293 46.0962 162.533 43.8693C163.811 41.6423 165.544 39.9082 167.733 38.6669C169.959 37.3891 172.459 36.7502 175.232 36.7502C178.042 36.7502 180.523 37.3709 182.676 38.6121C184.829 39.8534 186.508 41.6058 187.712 43.8693C188.953 46.0962 189.573 48.7065 189.573 51.7002C189.573 52.221 189.537 52.7728 189.464 53.2882H165.908C166.077 54.6389 166.485 55.8802 167.131 57.012C168.043 58.5089 169.302 59.6771 170.908 60.5168C172.514 61.3565 174.356 61.7763 176.436 61.7763C178.151 61.7763 179.702 61.4842 181.089 60.9001C182.512 60.316 183.753 59.4398 184.811 58.2716L187.712 61.6668C186.398 63.2001 184.756 64.3683 182.786 65.1715C180.852 65.9747 178.681 66.3763 176.272 66.3763ZM180.104 42.4455C181.527 43.2486 182.64 44.3804 183.443 45.8407C184.052 46.9482 184.419 48.1712 184.545 49.5097H165.897C166.051 48.1842 166.426 46.9795 167.022 45.8954C167.825 44.3986 168.938 43.2486 170.361 42.4455C171.784 41.6058 173.408 41.1859 175.232 41.1859C177.093 41.1859 178.717 41.6058 180.104 42.4455Z" fill="#15AAB8"/>
<path d="M142.093 37.0241V66.0477H147.348V51.5906C147.348 48.4145 148.169 45.9867 149.811 44.3073C151.453 42.628 153.679 41.7883 156.489 41.7883C156.489 41.7883 157.021 41.782 157.693 41.8431V36.7502C154.92 36.7502 152.584 37.2796 150.687 38.3383C149.135 39.2044 147.949 40.3881 147.129 41.8893V37.0241H142.093Z" fill="#15AAB8"/>
<path d="M129.938 66.3755C127.019 66.3755 124.757 65.5905 123.151 64.0207C121.545 62.4509 120.743 60.2057 120.743 57.285V41.3494H115.816V37.0232H120.743V30.6709H125.997V37.0232H134.317V41.3494H125.997V57.066C125.997 58.6358 126.381 59.8406 127.147 60.6803C127.95 61.5199 129.081 61.9398 130.54 61.9398C132.183 61.9398 133.551 61.4834 134.646 60.5707L136.288 64.3493C135.485 65.0429 134.518 65.554 133.387 65.8826C132.292 66.2112 131.143 66.3755 129.938 66.3755Z" fill="#15AAB8"/>
<path d="M98.7566 36.7502C101.128 36.7502 103.208 37.2066 104.997 38.1193C106.821 39.032 108.244 40.4193 109.266 42.2812C110.288 44.1431 110.799 46.4978 110.799 49.3454V66.0477H105.544V49.9478C105.544 47.1367 104.851 45.0192 103.464 43.5954C102.114 42.1716 100.198 41.4597 97.7166 41.4597C95.8556 41.4597 94.2317 41.8248 92.845 42.555C91.4584 43.2851 90.3819 44.3621 89.6156 45.7859C88.8858 47.2097 88.5209 48.9803 88.5209 51.0978V66.0477H83.2662V37.0241H88.3019V41.4098C89.2034 40.1522 90.3894 39.1284 91.8598 38.3383C93.8303 37.2796 96.1292 36.7502 98.7566 36.7502Z" fill="#15AAB8"/>
<path d="M30.0601 30.0724L32.9714 28.4487L36.5596 38.3602L40.1479 48.3054L33.6484 39.9839L27.1489 31.6962L30.0601 30.0724Z" fill="#22366A"/>
<path d="M4.9762 26.4191C5.01005 26.2838 5.01004 26.1823 5.04389 26.0809L8.32749 26.5883C8.32749 26.6898 8.29363 26.7912 8.29363 26.8927L4.9762 26.4191Z" fill="#22366A"/>
<path d="M5.34858 24.3218C5.38243 24.2203 5.41628 24.085 5.41628 23.9836L8.66603 24.7616C8.63218 24.8631 8.63217 24.9645 8.59832 25.066L5.34858 24.3218Z" fill="#22366A"/>
<path d="M9.10607 23.2732L5.92404 22.2584C5.95789 22.1569 5.99174 22.0216 6.02559 21.9201L9.17378 22.9687C9.17378 23.0702 9.13992 23.1717 9.10607 23.2732Z" fill="#22366A"/>
<path d="M6.6688 20.2287C6.70265 20.1272 6.77035 20.0258 6.8042 19.8904L9.85083 21.2097C9.81698 21.3112 9.78313 21.4127 9.71543 21.4803L6.6688 20.2287Z" fill="#22366A"/>
<path d="M7.58275 18.3006C7.65046 18.1991 7.68431 18.0976 7.75201 17.9961L10.6971 19.586C10.6632 19.6875 10.5955 19.7551 10.5617 19.8566L7.58275 18.3006Z" fill="#22366A"/>
<path d="M8.63216 16.4401C8.69987 16.3386 8.76757 16.2371 8.83528 16.1356L11.6449 17.9623C11.5772 18.0638 11.5434 18.1314 11.4757 18.2329L8.63216 16.4401Z" fill="#22366A"/>
<path d="M9.85082 14.681C9.91852 14.5796 9.98623 14.4781 10.0539 14.4104L12.6943 16.4739C12.6266 16.5415 12.5589 16.643 12.4912 16.7107L9.85082 14.681Z" fill="#22366A"/>
<path d="M11.2049 13.0235C11.2726 12.922 11.3741 12.8544 11.4418 12.7529L13.8792 15.0193C13.8115 15.087 13.7437 15.1546 13.676 15.2561L11.2049 13.0235Z" fill="#22366A"/>
<path d="M12.6944 11.5013C12.7959 11.4336 12.8636 11.3321 12.9652 11.2645L15.2332 13.7339C15.1655 13.8015 15.0978 13.8692 14.9962 13.9368L12.6944 11.5013Z" fill="#22366A"/>
<path d="M14.3192 10.1143C14.4208 10.0467 14.5223 9.97903 14.59 9.91138L16.6211 12.5499C16.5534 12.6176 16.4519 12.6852 16.3842 12.7529L14.3192 10.1143Z" fill="#22366A"/>
<path d="M16.0456 8.82889C16.1472 8.76124 16.2487 8.69359 16.3503 8.62593L18.1444 11.4336C18.0429 11.5013 17.9752 11.5351 17.8736 11.6027L16.0456 8.82889Z" fill="#22366A"/>
<path d="M17.8736 7.74643C17.9752 7.67877 18.0767 7.64495 18.1783 7.57729L19.7355 10.5203C19.6339 10.5541 19.5662 10.6218 19.4647 10.6556L17.8736 7.74643Z" fill="#22366A"/>
<path d="M19.8032 6.79925C19.9047 6.76542 20.0063 6.69777 20.1417 6.66394L21.4619 9.74223C21.3603 9.77606 21.2588 9.80989 21.1911 9.87754L19.8032 6.79925Z" fill="#22366A"/>
<path d="M21.7665 5.9874C21.8681 5.95357 22.0035 5.91975 22.105 5.88592L23.1544 9.03187C23.0529 9.0657 22.9513 9.09953 22.8498 9.13335L21.7665 5.9874Z" fill="#22366A"/>
<path d="M23.8315 5.37851C23.9331 5.34468 24.0685 5.31085 24.17 5.27702L24.9486 8.52446C24.847 8.55828 24.7455 8.55828 24.6439 8.59211L23.8315 5.37851Z" fill="#22366A"/>
<path d="M25.9303 4.93875C26.0318 4.90492 26.1672 4.90492 26.2688 4.87109L26.7766 8.15235C26.675 8.15235 26.5734 8.18618 26.4719 8.18618L25.9303 4.93875Z" fill="#22366A"/>
<path d="M55.1441 26.4191L51.8267 26.8927C51.8267 26.7912 51.7928 26.6898 51.7928 26.5883L55.0764 26.0809C55.1103 26.1823 55.1441 26.2838 55.1441 26.4191Z" fill="#22366A"/>
<path d="M54.7717 24.3218L51.522 25.066C51.4881 24.9645 51.4881 24.8631 51.4543 24.7616L54.704 23.9836C54.704 24.085 54.7379 24.1865 54.7717 24.3218Z" fill="#22366A"/>
<path d="M51.0142 23.2732C50.9804 23.1717 50.9465 23.0702 50.9126 22.9687L54.0608 21.9201C54.0947 22.0216 54.1285 22.1569 54.1624 22.2584L51.0142 23.2732Z" fill="#22366A"/>
<path d="M53.4515 20.2287L50.371 21.5142C50.3372 21.4127 50.3033 21.3112 50.2356 21.2436L53.2823 19.9243C53.3838 20.0258 53.4177 20.1273 53.4515 20.2287Z" fill="#22366A"/>
<path d="M52.5714 18.3006L49.6263 19.8228C49.5925 19.7213 49.5248 19.6537 49.4909 19.5522L52.436 17.9623C52.436 18.0976 52.5037 18.1991 52.5714 18.3006Z" fill="#22366A"/>
<path d="M51.4882 16.4401L48.6785 18.2329C48.6108 18.1314 48.5769 18.0638 48.5092 17.9623L51.2851 16.1356C51.3528 16.2371 51.4205 16.3386 51.4882 16.4401Z" fill="#22366A"/>
<path d="M50.2695 14.681L47.5952 16.6768C47.5275 16.6092 47.4598 16.5077 47.3921 16.44L50.0325 14.3766C50.134 14.4781 50.2018 14.5795 50.2695 14.681Z" fill="#22366A"/>
<path d="M48.9154 13.0235L46.4443 15.2561C46.3766 15.1885 46.3089 15.087 46.2412 15.0193L48.6785 12.7529C48.7462 12.8544 48.8139 12.9558 48.9154 13.0235Z" fill="#22366A"/>
<path d="M47.426 11.5013L45.124 13.9368C45.0563 13.8692 44.9886 13.8015 44.8871 13.7339L47.1551 11.2645C47.2228 11.3321 47.3244 11.4336 47.426 11.5013Z" fill="#22366A"/>
<path d="M45.8011 10.1144L43.7361 12.7191C43.6684 12.6514 43.5668 12.5838 43.4991 12.5161L45.5302 9.87756C45.5979 9.94522 45.6995 10.0129 45.8011 10.1144Z" fill="#22366A"/>
<path d="M44.0747 8.82889L42.2129 11.6027C42.1113 11.5351 42.0436 11.5013 41.942 11.4336L43.7362 8.62593C43.8716 8.72741 43.9731 8.76124 44.0747 8.82889Z" fill="#22366A"/>
<path d="M42.2467 7.74643L40.6218 10.6556C40.5203 10.6218 40.4526 10.5541 40.351 10.5203L41.9082 7.57729C42.0436 7.61112 42.1451 7.67877 42.2467 7.74643Z" fill="#22366A"/>
<path d="M40.3171 6.79926L38.9631 9.84373C38.8615 9.8099 38.7599 9.77607 38.6922 9.70842L40.0125 6.63012C40.114 6.69778 40.2156 6.73161 40.3171 6.79926Z" fill="#22366A"/>
<path d="M38.3537 5.9874L37.2705 9.13335C37.169 9.09953 37.0674 9.0657 36.9659 9.03187L38.0152 5.88592C38.1168 5.91975 38.2183 5.95357 38.3537 5.9874Z" fill="#22366A"/>
<path d="M36.2888 5.37851L35.4764 8.59211C35.3748 8.55828 35.2733 8.52446 35.1717 8.52446L35.9503 5.27702C36.0519 5.31085 36.1873 5.34468 36.2888 5.37851Z" fill="#22366A"/>
<path d="M34.19 4.93873L33.6484 8.21999C33.5468 8.18617 33.4453 8.18616 33.3437 8.18616L33.8515 4.90491C33.9531 4.90491 34.0885 4.90491 34.19 4.93873Z" fill="#22366A"/>
<path d="M4.9762 33.7258L8.29363 33.2523C8.29363 33.3537 8.32749 33.4552 8.32749 33.5567L5.04389 34.0641C5.01004 33.9288 4.9762 33.8273 4.9762 33.7258Z" fill="#22366A"/>
<path d="M5.34858 35.8232L8.59832 35.079C8.63217 35.1805 8.63218 35.2819 8.66603 35.3834L5.41628 36.1614C5.41628 36.06 5.38243 35.9247 5.34858 35.8232Z" fill="#22366A"/>
<path d="M9.10606 36.8718C9.13991 36.9733 9.17376 37.0748 9.20762 37.1763L6.05943 38.2249C6.02558 38.1234 5.99173 37.9881 5.95788 37.8866L9.10606 36.8718Z" fill="#22366A"/>
<path d="M6.6688 39.8825L9.74927 38.597C9.78312 38.6985 9.81698 38.8 9.88468 38.8676L6.83806 40.1869C6.7365 40.1192 6.70265 39.9839 6.6688 39.8825Z" fill="#22366A"/>
<path d="M7.58275 41.8444L10.5278 40.3222C10.5617 40.4237 10.6294 40.4913 10.6632 40.5928L7.71816 42.1827C7.68431 42.0474 7.61661 41.9459 7.58275 41.8444Z" fill="#22366A"/>
<path d="M8.63216 43.6711L11.4418 41.8783C11.5095 41.9797 11.5434 42.0474 11.6111 42.1489L8.80142 43.9756C8.76757 43.8741 8.69987 43.7726 8.63216 43.6711Z" fill="#22366A"/>
<path d="M9.85082 45.4301L12.5251 43.4343C12.5928 43.502 12.6605 43.6035 12.7282 43.6711L10.0878 45.7346C9.98622 45.6331 9.91852 45.5316 9.85082 45.4301Z" fill="#22366A"/>
<path d="M11.2049 47.0877L13.676 44.8551C13.7437 44.9227 13.8115 45.0242 13.8792 45.0919L11.4418 47.3583C11.3741 47.2568 11.3064 47.1892 11.2049 47.0877Z" fill="#22366A"/>
<path d="M12.6944 48.6099L14.9962 46.1743C15.0639 46.242 15.1317 46.3096 15.2332 46.3773L12.9652 48.8467C12.8975 48.779 12.7959 48.7114 12.6944 48.6099Z" fill="#22366A"/>
<path d="M14.3192 50.0307L16.3842 47.4259C16.4519 47.4936 16.5534 47.5613 16.6211 47.6289L14.59 50.2674C14.5223 50.166 14.4208 50.0983 14.3192 50.0307Z" fill="#22366A"/>
<path d="M16.0456 51.2823L17.9074 48.5084C18.009 48.5761 18.0767 48.6099 18.1783 48.6776L16.3841 51.4853C16.2487 51.4176 16.1472 51.3499 16.0456 51.2823Z" fill="#22366A"/>
<path d="M17.8736 52.3986L19.4985 49.4894C19.6001 49.5233 19.6678 49.5909 19.7693 49.6247L18.2121 52.5677C18.0767 52.5001 17.9752 52.4324 17.8736 52.3986Z" fill="#22366A"/>
<path d="M19.8032 53.3458L21.1572 50.3013C21.2588 50.3351 21.3603 50.3689 21.428 50.4366L20.1078 53.5149C20.0063 53.4472 19.9047 53.3796 19.8032 53.3458Z" fill="#22366A"/>
<path d="M21.7665 54.1238L22.8498 50.9778C22.9513 51.0117 23.0529 51.0455 23.1544 51.0793L22.105 54.2253C22.0035 54.1914 21.9019 54.1576 21.7665 54.1238Z" fill="#22366A"/>
<path d="M23.8315 54.7327L24.6439 51.5191C24.7455 51.5529 24.847 51.5867 24.9486 51.5867L24.17 54.8342C24.0685 54.8003 23.9331 54.7665 23.8315 54.7327Z" fill="#22366A"/>
<path d="M25.9303 55.1724L26.4719 51.8912C26.5734 51.925 26.675 51.925 26.7766 51.925L26.2688 55.2062C26.1672 55.2062 26.0318 55.2062 25.9303 55.1724Z" fill="#22366A"/>
<path d="M55.1441 33.7258C55.1441 33.8273 55.1103 33.9626 55.0764 34.0641L51.7928 33.5567C51.7928 33.4552 51.8267 33.3537 51.8267 33.2523L55.1441 33.7258Z" fill="#22366A"/>
<path d="M54.7717 35.8232C54.7379 35.9247 54.704 36.06 54.704 36.1614L51.4543 35.3834C51.4881 35.2819 51.4881 35.1805 51.522 35.079L54.7717 35.8232Z" fill="#22366A"/>
<path d="M51.0142 36.8718L54.1963 37.8866C54.1624 37.9881 54.1285 38.1234 54.0947 38.2249L50.9465 37.1763C50.9465 37.0748 50.9803 36.9733 51.0142 36.8718Z" fill="#22366A"/>
<path d="M53.4515 39.8825C53.4176 39.9839 53.3499 40.1193 53.3161 40.2207L50.2695 38.9015C50.3033 38.8 50.3372 38.6985 50.4049 38.6308L53.4515 39.8825Z" fill="#22366A"/>
<path d="M52.5714 41.8444C52.5036 41.9459 52.4698 42.0474 52.4021 42.1489L49.457 40.559C49.4909 40.4575 49.5586 40.3899 49.5924 40.2884L52.5714 41.8444Z" fill="#22366A"/>
<path d="M51.4882 43.6711C51.4205 43.7726 51.3528 43.8741 51.2851 43.9756L48.5092 42.1489C48.5769 42.0474 48.6108 41.9797 48.6785 41.8783L51.4882 43.6711Z" fill="#22366A"/>
<path d="M50.2695 45.4302C50.2018 45.5316 50.1341 45.6331 50.0664 45.7008L47.426 43.6373C47.4937 43.5696 47.5614 43.4682 47.6291 43.4005L50.2695 45.4302Z" fill="#22366A"/>
<path d="M48.9154 47.0877C48.8477 47.1892 48.7462 47.2568 48.6785 47.3583L46.2412 45.0919C46.3089 45.0242 46.3766 44.9566 46.4443 44.8551L48.9154 47.0877Z" fill="#22366A"/>
<path d="M47.426 48.6099C47.3244 48.6776 47.2567 48.779 47.1551 48.8467L44.8871 46.3773C44.9548 46.3096 45.0225 46.242 45.124 46.1743L47.426 48.6099Z" fill="#22366A"/>
<path d="M36.2888 54.7327C36.1873 54.7665 36.0519 54.8003 35.9503 54.8342L35.1717 51.5867C35.2733 51.5529 35.3748 51.5529 35.4764 51.5191L36.2888 54.7327Z" fill="#22366A"/>
<path d="M34.19 55.1724C34.0885 55.2062 33.9531 55.2062 33.8515 55.2401L33.3437 51.9588C33.4453 51.9588 33.5468 51.925 33.6484 51.925L34.19 55.1724Z" fill="#22366A"/>
<path d="M45.8011 50.0645C45.6995 50.1321 45.5979 50.1998 45.5302 50.2674L43.4991 47.6289C43.5668 47.5613 43.6684 47.4936 43.7361 47.4259L45.8011 50.0645Z" fill="#22366A"/>
<path d="M70.5465 59.2656C68.3461 61.3967 65.4011 62.6822 62.0836 62.6822C58.7323 62.6822 55.7195 61.3291 53.4853 59.1303C51.7251 57.3713 50.5064 55.1048 50.1002 52.534C50.8788 51.8236 51.6574 51.0794 52.3682 50.3013L52.4021 50.2675C57.2428 44.9228 60.1879 37.8529 60.1879 30.0726C60.1879 13.4633 46.715 0 30.094 0C13.4729 0 0 13.4633 0 30.0726C0 46.6818 13.4729 60.1451 30.094 60.1451C33.0729 60.1451 35.9164 59.7054 38.6245 58.9273L36.9997 55.1725C35.6117 55.5446 34.2238 55.8152 32.7682 55.9505L31.5834 53.9209L30.094 51.35L28.6045 53.9209L27.4197 55.9505C21.2926 55.3416 15.8086 52.6016 11.6788 48.4747C7.54888 44.3477 4.80691 38.8677 4.19758 32.7787L6.29638 31.561L8.86909 30.0726L6.29638 28.5842L4.19758 27.3664C4.84076 21.2436 7.58273 15.7636 11.6788 11.6705C15.8086 7.54351 21.2926 4.80349 27.4197 4.1946L28.6045 6.22424L30.094 8.79512L31.5834 6.22424L32.7682 4.1946C38.8953 4.80349 44.3793 7.54351 48.5092 11.6705C52.639 15.7974 55.381 21.2436 55.9903 27.3664L53.8916 28.5842L51.3188 30.0726L53.8916 31.561L55.9903 32.7787C55.3472 38.9015 52.6052 44.3477 48.5092 48.4747C47.9675 49.0159 46.715 50.0645 46.715 50.0645C46.038 51.0794 46.2073 52.4325 46.2073 52.4325C47.1213 60.3819 53.8916 66.5723 62.1175 66.5723C66.4166 66.5723 70.3095 64.881 73.1869 62.1409L70.5465 59.2656Z" fill="url(#paint0_linear_1744_38428)"/>
<path d="M30.0601 30.0725L27.1489 31.6962L23.5606 21.7509L19.9724 11.8057L26.4718 20.1272L32.9713 28.4487L30.0601 30.0725Z" fill="#15AAB8"/>
<path d="M62.7268 34.5378C61.7451 34.5378 60.7634 34.6393 59.7817 34.8085C59.5447 36.263 59.2062 37.6838 58.8 39.0707C60.0525 38.631 61.3727 38.428 62.7606 38.428C66.1119 38.428 69.1247 39.7811 71.3589 41.9799C73.1192 43.7389 74.304 46.0053 74.744 48.5424H53.8915C53.4176 49.1513 52.9437 49.7263 52.4359 50.3014L52.4021 50.3352C51.6912 51.1133 50.9465 51.8236 50.2017 52.534H78.8062V50.572C78.7385 41.7092 71.5958 34.5378 62.7268 34.5378Z" fill="#15AAB8"/>
<defs>
<linearGradient id="paint0_linear_1744_38428" x1="5.42707" y1="12.825" x2="73.0976" y2="62.2617" gradientUnits="userSpaceOnUse">
<stop offset="0.718868" stop-color="#22366A"/>
<stop offset="0.9" stop-color="#15AAB8"/>
</linearGradient>
</defs>
</svg>
