<svg width="514" height="131" viewBox="0 0 514 131" fill="none" xmlns="http://www.w3.org/2000/svg">
<path d="M115.472 129.615L111.891 129.256H108.67L104.197 128.177L96.4962 124.064H91.8441L80.9217 127.106L77.8803 128.177L73.9397 129.256L70.3588 129.076L64.8077 129.256L52.2746 128.357L49.0534 127.645L45.4725 126.566L38.8502 125.135L35.9886 123.165L32.4078 122.094L23.6354 116.363L15.5745 109.201L13.2524 105.98L11.1023 103.83L9.49168 100.429L7.34159 97.3875L6.27045 93.9864L3.40106 87.8958L0.719304 77.1609L0 70.179L0.359652 56.2073L1.25878 52.6343L1.43079 49.0534L3.58088 41.8916L5.01167 39.0222L5.9108 35.2615L7.34159 32.3999L15.9341 20.766L23.2757 13.4244L38.6704 4.83184L45.4725 2.68175L48.8736 2.3221L52.2746 1.25096L56.0353 0.531659L64.8077 0.351833L69.9992 0L76.9811 0.711485L90.773 4.65202L105.628 13.2446L111.179 18.0764L113.509 20.4063L119.952 29.1787L124.604 38.4906L127.825 48.8736L128.544 52.6343V55.6757L129.264 59.6162L129.615 64.6279L129.264 70.7107L127.825 81.813L126.574 84.8544L125.683 88.6151L122.633 95.4172V99.8972L123.712 104.549L126.035 107.059L128.185 110.46L137.856 121.554L140.178 124.956L139.287 128.716L135.886 129.615H132.665L129.084 129.256L115.472 129.615ZM64.4559 97.9269L73.4002 97.2076L80.3822 94.346L86.293 89.6862L88.8027 87.3641L91.1248 84.3149L92.9153 81.0937L94.3461 77.333L95.6048 70.7107L95.9645 64.8077L95.425 55.4958L92.9153 48.8736L91.3047 45.8243L88.9826 42.4233L83.4314 37.4116L80.2102 35.0895L75.3705 33.2991L70.5387 31.8605L59.0845 31.3288L53.5334 33.2991L48.8736 35.4413L42.6109 39.5617L40.281 42.0714L38.3107 45.1128L34.9097 52.0948L33.2991 59.4364L33.1192 64.9797L34.0184 74.2916L34.9097 77.6926L37.9589 83.7832L40.1012 87.1843L45.6523 92.7354L48.5217 94.5259L51.9228 96.3163L64.4559 97.9269Z" fill="#13538A"/>
<path d="M149.661 122.394L149.309 118.993L149.661 79.7834L149.129 74.4121L149.84 40.2217L149.309 32.7003L149.661 22.1375L149.481 18.9163L149.661 15.1556L149.309 11.9343V7.9938L151.099 4.23309L155.032 2.45047L176.697 2.80231L179.918 2.09082L186.9 2.98213L190.121 2.27065L208.565 2.80231L215.547 4.41292L218.589 5.49188L221.99 7.10249L225.031 8.89293L227.541 10.8632L230.223 12.6536L232.912 15.1556L238.823 23.3963L240.074 27.1492L241.505 33.5994L241.864 39.1506L241.685 45.2334L239.534 51.6759L236.133 58.6578L234.882 62.0667L236.673 66.1792L239.534 68.689L241.864 71.3707L245.086 78.7123L247.056 85.1548L246.696 99.6581L245.265 103.059L244.186 106.46L242.404 110.041L237.564 116.663L230.402 122.394L227.181 124.005L217.158 126.874L213.937 127.406L195.493 128.305L191.912 127.766L165.954 128.125L160.583 127.586L154.672 128.125L151.271 125.975L149.661 122.394ZM186.361 51.5039L200.153 50.9644L205.344 49.1739L208.026 47.0238L209.277 41.8323L208.745 36.461L207.314 33.5994L204.445 32.1687L186.009 30.9099L182.608 33.06L180.458 38.2515L180.638 44.3421L182.608 49.3538L186.361 51.5039ZM185.829 99.2985L199.613 99.6581L209.457 98.7668L212.506 96.7965L214.468 94.2868L215.367 89.0953L214.296 84.6231L212.506 81.4019L209.457 80.1431L192.631 78.5325L188.87 78.8921L185.469 78.3526L182.428 80.6826L180.817 83.724L180.278 94.4666L182.608 98.0475L185.829 99.2985Z" fill="#13538A"/>
<path d="M326.191 130.753L315.448 130.213L300.233 125.741L296.832 124.303L284.659 117.86L282.329 115.178L277.317 110.339L268.904 98.8847L267.114 95.6634L266.035 91.9027L263.353 85.8121L261.383 74.5378L262.102 53.7718L263.533 46.0706L266.934 36.2271L268.545 33.1779L274.627 24.2256L279.467 18.8543L285.19 14.9216L287.7 12.7715L296.832 7.04054L303.634 5.2501L306.855 3.81931L310.436 2.74818L314.017 2.02887L326.55 1.30957L334.963 1.4894L358.418 8.83098L367.55 14.562L375.244 21.5439L377.574 24.7651L379.724 26.9152L382.046 29.9566L383.305 33.1779L386.526 39.0887L387.417 43.209L388.848 46.9619L390.287 53.592L391.178 65.9453L390.287 78.4705L389.567 82.4111L388.496 85.2805L387.957 88.8613L386.706 92.2624L379.724 104.616L377.394 107.837L364.861 119.83L348.927 126.992L342.125 129.142L326.191 130.753ZM321.179 99.2443L331.562 98.8847L334.963 97.9855L338.184 97.6337L341.054 96.0153L344.275 94.5845L349.826 90.2921L351.968 87.0709L353.579 84.3813L355.549 81.6996L357.16 74.358L358.239 65.4058L357.519 57.7045L356.268 54.4833L355.197 50.9024L353.759 47.6812L349.646 41.5906L344.095 37.478L334.603 33.3577L326.011 32.8182L317.778 33.5375L314.017 34.4366L310.796 36.0472L305.604 39.6281L302.915 41.9502L300.593 44.8196L298.982 47.861L296.832 50.363L295.753 53.592L294.502 60.2143L294.322 65.5856L295.221 74.5378L298.622 84.5612L300.945 87.0709L302.735 89.5728L308.286 94.4047L314.377 97.6337L317.598 97.9855L321.179 99.2443Z" fill="#13538A"/>
<path d="M400.312 123.471L401.923 119.351L403.714 115.95L405.684 113.44L407.474 110.039L411.407 104.668L417.138 95.1837L419.288 92.4941L422.869 86.0517L425.191 83.7217L426.981 80.5005L428.772 78.3504L432.353 71.908L436.473 65.9972L437.192 62.0644L436.113 57.2248L434.503 54.543L432.001 51.3218L428.42 45.2312L426.27 42.5494L424.3 39.1484L422.15 36.4588L418.389 30.0163L413.377 23.0344L410.516 17.8429L406.036 11.9321L404.245 7.99157L404.605 4.05886L408.725 2.9799L414.097 3.15973L419.648 2.44824L423.76 2.9799H427.341L431.282 2.44824L435.582 4.41069L439.335 7.45991L448.467 22.1353L449.726 25.3565L451.688 27.6864L453.478 31.2673L455.269 34.1289L457.779 33.5972L465.832 22.3151L467.09 18.7342L472.993 10.5013L474.424 7.10026L478.545 4.41069L482.845 2.80008L486.246 2.44824L499.131 2.9799L504.862 2.62025L508.802 3.87903L509.694 7.63974L499.311 23.7459L497.7 26.9749L484.987 45.0513L483.197 48.4524L479.616 54.0036L477.114 57.2248L476.215 61.525L477.294 65.9972L479.444 68.6867L487.677 82.4708L493.048 89.4527L496.449 95.7153L498.779 98.9444L500.03 101.266L506.293 109.859L507.903 112.908L511.844 118.631L513.994 123.111L513.454 127.224L509.873 128.123L506.293 127.584L485.706 128.663L481.406 126.692L478.005 123.291L460.109 93.2134L457.958 90.5238L455.808 90.344L453.838 93.0336L450.437 99.8357L448.107 102.166L446.496 105.567L441.305 114.339L439.694 117.92L437.724 120.602L436.293 123.471L432.353 126.333L428.24 127.584L422.869 128.123L404.073 128.303L400.844 127.052L400.312 123.471Z" fill="#13538A"/>
</svg>
